<svg id="Layer_1" data-name="Layer 1" xmlns="http://www.w3.org/2000/svg" xmlns:xlink="http://www.w3.org/1999/xlink" viewBox="0 0 512 512"><defs><linearGradient id="linear-gradient" x1="189.79" y1="-133.63" x2="318.41" y2="69.36" gradientUnits="userSpaceOnUse"><stop offset="0" stop-color="#fff33b"/><stop offset="0.04" stop-color="#fee72e"/><stop offset="0.12" stop-color="#fed51b"/><stop offset="0.2" stop-color="#fdca10"/><stop offset="0.28" stop-color="#fdc70c"/><stop offset="0.44" stop-color="#f3903f"/><stop offset="0.63" stop-color="#e93e3a"/><stop offset="1" stop-color="#ed683c"/></linearGradient><linearGradient id="linear-gradient-2" x1="168.69" y1="-120.26" x2="278.27" y2="52.68" xlink:href="#linear-gradient"/><linearGradient id="linear-gradient-3" x1="144.51" y1="-104.94" x2="382.01" y2="269.88" xlink:href="#linear-gradient"/><linearGradient id="linear-gradient-4" x1="375.98" y1="492.4" x2="492.3" y2="396.59" xlink:href="#linear-gradient"/><linearGradient id="linear-gradient-5" x1="234.89" y1="609.28" x2="730.13" y2="201.35" xlink:href="#linear-gradient"/><linearGradient id="linear-gradient-6" x1="235.14" y1="609.58" x2="876.53" y2="81.28" xlink:href="#linear-gradient"/><linearGradient id="linear-gradient-7" x1="234.71" y1="609.06" x2="876.1" y2="80.76" xlink:href="#linear-gradient"/><linearGradient id="linear-gradient-8" x1="234.51" y1="608.81" x2="875.9" y2="80.51" xlink:href="#linear-gradient"/><linearGradient id="linear-gradient-9" x1="122.75" y1="473.14" x2="764.15" y2="-55.16" gradientUnits="userSpaceOnUse"><stop offset="0.03" stop-color="#fdc70c"/><stop offset="0.33" stop-color="#f3903f"/><stop offset="0.63" stop-color="#e93e3a"/><stop offset="1" stop-color="#ed683c"/></linearGradient><linearGradient id="linear-gradient-10" x1="71.02" y1="410.33" x2="413.5" y2="128.23" xlink:href="#linear-gradient"/><linearGradient id="linear-gradient-11" x1="10.77" y1="668.55" x2="589.66" y2="259.51" xlink:href="#linear-gradient"/></defs><title>foreground</title><path d="M51.19,472.3c1.32.42,1.44,1.2.68,2.25C51,474,51,473.16,51.19,472.3Z" style="fill:#f79551"/><path d="M70,341.26l.05,0h0Z" style="fill:#e4752c"/><path d="M32.24,336.64h0a1.25,1.25,0,0,0,0-.18Z" style="fill:#e4752c"/><path d="M112,361.29h0Z" style="fill:#e4752c"/><path d="M31,337.3h0Z" style="fill:#e4752c"/><path d="M14.07,365.34v0h0Z" style="fill:#e4752c"/><path d="M28,339.29l0,0h0Z" style="fill:#e4752c"/><path d="M24,343.28h0l0,0Z" style="fill:#e4752c"/><path d="M149.32,304.33l0,0s0,0,0,0h0Z" style="fill:#f7941d"/><path d="M157.95,312.9h0l0,0Z" style="fill:#f7941d"/><path d="M222.66,35.73l0,.1h0A.67.67,0,0,0,222.66,35.73Z" style="fill:#f7941d"/><polygon points="222.02 36.18 222 36.19 222.01 36.19 222.02 36.18" style="fill:#f7941d"/><path d="M212.86,51.26v0Z" style="fill:#f7941d"/><path d="M220.4,37.24l0,0h0Z" style="fill:#f7941d"/><path d="M350.66,120.24l0,0v0Z" style="fill:#f7941d"/><path d="M142.88,265.57h0Z" style="fill:#f7941d"/><path d="M151.48,434.71l0,0h0Z" style="fill:#f7941d"/><path d="M158,312.93l0,0,0,0Z" style="fill:#f7941d"/><path d="M151.51,434.71v0l0,0Z" style="fill:#f7941d"/><path d="M434.21,445.18l.08.81Z" style="fill:#f7941d"/><path d="M434.15,444.51l0,.53Z" style="fill:#f7941d"/><path d="M434.15,444.47Z" style="fill:#f7941d"/><path d="M439.34,495.17q-.15-.85-.27-1.75l.09,0a14.62,14.62,0,0,0-.2-5l-.37.05c-.57-8-.5-17.5-2.79-26-.17-.61-.35-1.22-.54-1.82l.54,1.14a123.33,123.33,0,0,0-1.49-15.77c-2.12-22.52-5.14-45.48-7.24-68.33v-.19h0q-.76-8.25-1.33-16.48c-2.8-41.41-1.88-87.91-11.16-127.91-6.86-29.57-22.21-66.88-45.94-92.67l-.05-.06c-3.64-4.21-15.5-17.22-23.21-25.65a106.66,106.66,0,0,0-9.42-9.92c-10.69-9.58-21.19-19.4-32.21-28.61C285.49,61,260,40.61,235.86,36.16c-17.88-3.29-25.73,8.48-22,26.24,2.79,13.38,10.93,25.41,15.93,38,4.12,10.34,4.39,18.72,3.21,28.83,0,.25-1.15,7.31-5.12,10.93h0c-30.39,26.9-53.59,66.58-72,98.56h0c-15,26-23.95,52.87,3.39,75,13.23,10.71,31.74,15.95,48,19.74a267.36,267.36,0,0,0,34.06,5.38c2.95.3,32,3.14,19.44.72q6.4,1.18,12.75,2.61c-8.87-.93-10.53,1.87-18.67,7.93C244.11,358,233.2,366,222.9,374.5c-32.92,27.07-66,54.32-95.82,85-3.83,4-7.73,7.88-11.41,12-5.73,6.37-24.33,23.77-26,34.05h-.12v5.85a1.5,1.5,0,0,0,1.5,1.5H437.81a1.5,1.5,0,0,0,1.5-1.5,1.64,1.64,0,0,0,.45-.28C443.09,507.82,439.83,499.79,439.34,495.17Zm-5-48.92v-.11l0,.25Zm0,.44.05.53-.07-.77Zm.06.61v0l.05.57,0-.41Z" style="fill:#f7941d"/><path d="M434.43,447.43v0Z" style="fill:#f7941d"/><path d="M350.64,120.22v0h0Z" style="fill:url(#linear-gradient)"/><path d="M282.83,59.88h0Z" style="fill:url(#linear-gradient-2)"/><path d="M355.38,126.57c-9.72-11.33-14.27-17-19.45-21.67-10.69-9.58-21.19-19.4-32.21-28.61C285.49,61,260,40.61,235.86,36.16c-17.88-3.29-25.73,8.48-22,26.24,2.79,13.38,10.93,25.41,15.93,38,4.85,12.19,4.37,21.65,2.46,34.41,2.48-.26,5.61-3.67,7.93-5.08a142.14,142.14,0,0,1,41.43-17.17c15.49-3.58,31.2-3.76,46.6.62A86.16,86.16,0,0,1,355.38,126.57ZM334,104h0Z" style="fill:url(#linear-gradient-3)"/><path d="M434.15,444.51v0Z" style="fill:url(#linear-gradient-4)"/><path d="M434.21,445.18v0Z" style="fill:url(#linear-gradient-5)"/><path d="M434.29,446l-.08-.81Z" style="fill:url(#linear-gradient-6)"/><path d="M434.2,445l0-.53Z" style="fill:url(#linear-gradient-7)"/><path d="M434.15,444.47Z" style="fill:url(#linear-gradient-8)"/><path d="M434.3,446.11c-2.63-28-6.67-56.68-8.59-85-2.8-41.41-1.88-87.91-11.16-127.91-10.79-46.49-42.57-112.16-94.92-122-80.49-15.18-130.06,69-163.82,127.5-15,26-23.95,52.87,3.39,75,13.23,10.71,31.74,15.95,48,19.74a267.36,267.36,0,0,0,34.06,5.38c3,.31,33.93,3.33,18.1.47C333.73,352.74,403.38,391,435.79,461.88a123.32,123.32,0,0,0-1.49-15.77Zm-56-288.89c.1.39-.58.33,0,0ZM416,247.16l0,0Zm18.29,199,.07.77Zm.11,1.13,0,.18Z" style="fill:url(#linear-gradient-9)"/><path d="M378.28,157.22c-.1.05,0,.07,0,0Z" style="fill:url(#linear-gradient-10)"/><path d="M439.34,495.17q-.15-.85-.27-1.75l.09,0a14.63,14.63,0,0,0-.2-5l-.37.05c-.57-8-.5-17.5-2.79-26-3.89-14.35-12.88-28-22.23-39.25-18.29-22.05-42.29-39.84-67.06-54-21.27-12.15-44.83-22.32-69-26.6-12.59-2.23-13.47.46-22.72,7.35C244.11,358,233.2,366,222.9,374.5c-32.92,27.07-66,54.32-95.82,85-3.83,4-7.73,7.88-11.41,12-5.73,6.37-24.33,23.77-26,34.05h-.12v5.85a1.5,1.5,0,0,0,1.5,1.5H437.81a1.5,1.5,0,0,0,1.5-1.5h0a1.64,1.64,0,0,0,.45-.28C443.09,507.82,439.83,499.79,439.34,495.17Z" style="fill:url(#linear-gradient-11)"/></svg>