<?xml version="1.0" encoding="utf-8"?>
<!-- Generator: Adobe Illustrator 20.0.0, SVG Export Plug-In . SVG Version: 6.00 Build 0)  -->
<svg version="1.1" id="Layer_1" xmlns="http://www.w3.org/2000/svg" xmlns:xlink="http://www.w3.org/1999/xlink" x="0px" y="0px"
	 viewBox="0 0 512 512" style="enable-background:new 0 0 512 512;" xml:space="preserve">
<style type="text/css">
	.st0{fill:#1E1432;}
	.st1{fill:url(#SVGID_1_);}
	.st2{fill:#FAAF49;}
	.st3{fill:#F37751;}
	.st4{fill:#F79551;}
	.st5{fill:#E4752C;}
	.st6{fill:#F48151;}
	.st7{fill:#F7941D;}
	.st8{fill:url(#SVGID_2_);}
	.st9{fill:url(#SVGID_3_);}
	.st10{fill:url(#SVGID_4_);}
	.st11{fill:url(#SVGID_5_);}
	.st12{fill:url(#SVGID_6_);}
	.st13{fill:url(#SVGID_7_);}
	.st14{fill:url(#SVGID_8_);}
	.st15{fill:url(#SVGID_9_);}
	.st16{fill:url(#SVGID_10_);}
	.st17{fill:url(#SVGID_11_);}
	.st18{fill:url(#SVGID_12_);}
	.st19{fill:#362C58;}
	.st20{fill:#EF4136;}
	.st21{fill:#FBB040;}
	.st22{fill:#4B3E70;}
</style>
<path class="st0" d="M531.8,636H-19.8C-77.3,636-124,589.3-124,531.8V-19.8C-124-77.3-77.3-124-19.8-124h551.7
	C589.3-124,636-77.3,636-19.8v551.7C636,589.3,589.3,636,531.8,636z"/>
<linearGradient id="SVGID_1_" gradientUnits="userSpaceOnUse" x1="69.1162" y1="-40.9041" x2="416.9741" y2="511.7411">
	<stop  offset="0" style="stop-color:#4C3F70"/>
	<stop  offset="1" style="stop-color:#352951"/>
</linearGradient>
<path class="st1" d="M451.4,512H60.6C27.1,512,0,484.9,0,451.4V60.6C0,27.1,27.1,0,60.6,0h390.9C484.9,0,512,27.1,512,60.6v390.9
	C512,484.9,484.9,512,451.4,512z"/>
<path class="st2" d="M704.9,662.1c0,0.9-0.4,1.5-1.2,1.8C704.1,663.3,704.5,662.7,704.9,662.1z"/>
<g>
	<polygon class="st3" points="679.2,702 679.2,702 679.3,702 	"/>
	<path class="st3" d="M643.2,862C643.2,862,643.2,862,643.2,862C643.2,861.9,643.2,861.9,643.2,862C643.1,861.9,643.2,862,643.2,862
		z"/>
	<path class="st3" d="M659.3,877.9C659.2,877.9,659.2,877.9,659.3,877.9C659.2,877.9,659.2,877.9,659.3,877.9
		C659.2,877.9,659.3,877.9,659.3,877.9z"/>
	<path class="st3" d="M681.2,892C681.2,892,681.2,892,681.2,892C681.1,892,681.1,892,681.2,892C681.1,892,681.2,892,681.2,892z"/>
	<path class="st3" d="M713.2,648C713.2,648,713.2,648,713.2,648C713.2,648,713.2,648,713.2,648C713.2,648,713.2,648,713.2,648z"/>
	<polygon class="st3" points="805.2,542 805.2,542 805.2,542 	"/>
	<path class="st3" d="M743.2,606C743.2,606,743.2,606,743.2,606C743.2,606,743.2,606,743.2,606C743.2,606,743.2,606,743.2,606z"/>
	<path class="st3" d="M709.2,654C709.2,654,709.2,654,709.2,654C709.2,654,709.2,654,709.2,654L709.2,654z"/>
</g>
<path class="st4" d="M798.3,499c1.3,0.4,1.4,1.2,0.7,2.2C798.1,500.7,798.1,499.8,798.3,499z"/>
<g>
	<path class="st5" d="M817.1,367.9C817.1,367.9,817.2,368,817.1,367.9C817.2,368,817.2,368,817.1,367.9L817.1,367.9z"/>
	<path class="st5" d="M779.3,363.3C779.3,363.3,779.4,363.3,779.3,363.3c0-0.1,0-0.1,0-0.2C779.4,363.1,779.3,363.3,779.3,363.3z"/>
	<path class="st5" d="M859.1,388C859.1,388,859.1,388,859.1,388C859.2,388,859.2,388,859.1,388C859.2,388,859.1,388,859.1,388z"/>
	<path class="st5" d="M778.1,364C778.2,364,778.2,364,778.1,364C778.2,364,778.2,364,778.1,364L778.1,364z"/>
	<path class="st5" d="M761.2,392C761.2,392,761.2,392,761.2,392C761.2,392,761.2,392,761.2,392C761.2,392,761.2,392,761.2,392z"/>
	<path class="st5" d="M775.1,366C775.1,366,775.2,366,775.1,366C775.2,365.9,775.2,365.9,775.1,366L775.1,366z"/>
	<path class="st5" d="M771.1,370L771.1,370C771.1,370,771.1,369.9,771.1,370L771.1,370z"/>
	<polygon class="st5" points="805.2,542 805.2,542 805.2,542 	"/>
</g>
<path class="st3" d="M880.2,931.8c0.3,0.1,0.6,0.1,1,0.2C880.8,932,880.5,931.9,880.2,931.8z"/>
<path class="st5" d="M800.3,545.2"/>
<path class="st5" d="M805.2,542"/>
<path class="st5" d="M808.2,540c0.3-0.3,0.7-0.7,1-1C808.9,539.3,808.5,539.7,808.2,540z"/>
<g>
	<path class="st2" d="M631.2,790C631.2,790,631.2,790,631.2,790C631.2,790,631.2,790,631.2,790L631.2,790z"/>
	<path class="st2" d="M679.2,702C679.2,702,679.2,702,679.2,702L679.2,702C679.2,702,679.2,702,679.2,702z"/>
	<polygon class="st2" points="655.2,740 655.2,740 655.2,740 	"/>
	<path class="st2" d="M713.2,648C713.2,648,713.2,648,713.2,648L713.2,648C713.2,648,713.2,648,713.2,648z"/>
	<path class="st2" d="M743.2,606C743.2,606,743.2,606,743.2,606L743.2,606C743.2,606,743.2,606,743.2,606z"/>
	<path class="st2" d="M709.2,654C709.2,654,709.2,654,709.2,654C709.2,654,709.2,654,709.2,654L709.2,654z"/>
	<path class="st2" d="M643.2,862L643.2,862C643.1,861.9,643.1,862,643.2,862C643.2,862,643.2,862,643.2,862z"/>
	<path class="st2" d="M721.2,636C721.2,636,721.2,636,721.2,636C721.2,636,721.2,636,721.2,636L721.2,636z"/>
	<path class="st2" d="M693.2,898C693.2,898,693.1,897.9,693.2,898C693.1,897.9,693.2,897.9,693.2,898C693.2,898,693.2,898,693.2,898
		z"/>
	<path class="st2" d="M647.2,1104.1L647.2,1104.1C647.2,1104,647.2,1104,647.2,1104.1C647.2,1104,647.2,1104.1,647.2,1104.1z"/>
	<path class="st2" d="M751.2,596C751.2,596,751.2,596,751.2,596C751.2,596,751.2,596.1,751.2,596C751.2,596.1,751.2,596,751.2,596z"
		/>
	<path class="st2" d="M659.3,877.9L659.3,877.9C659.2,877.9,659.2,877.9,659.3,877.9C659.3,877.9,659.3,877.9,659.3,877.9z"/>
	<path class="st2" d="M681.2,892L681.2,892C681.1,892,681.1,892,681.2,892C681.2,892,681.2,892,681.2,892z"/>
	<path class="st2" d="M647.2,1104.1C647.2,1104.1,647.2,1104.1,647.2,1104.1C647.3,1104,647.3,1104,647.2,1104.1
		C647.3,1104,647.2,1104.1,647.2,1104.1z"/>
</g>
<g>
	<path class="st6" d="M-23.9,378.6c-0.8-0.3-0.8-0.7,0-1C-23.9,377.9-23.9,378.3-23.9,378.6z"/>
	<g>
		<path class="st7" d="M150.7,304.3C150.7,304.3,150.7,304.3,150.7,304.3C150.7,304.3,150.7,304.3,150.7,304.3
			C150.7,304.4,150.7,304.4,150.7,304.3L150.7,304.3C150.7,304.3,150.7,304.4,150.7,304.3C150.7,304.3,150.7,304.3,150.7,304.3z"/>
		<path class="st7" d="M159.3,312.9C159.3,312.9,159.3,312.9,159.3,312.9C159.3,312.9,159.4,312.9,159.3,312.9
			C159.3,312.9,159.3,312.9,159.3,312.9z"/>
		<path class="st7" d="M224,35.7C224,35.7,224,35.8,224,35.7C224,35.8,224,35.8,224,35.7C224,35.8,224,35.8,224,35.7z"/>
		<polygon class="st7" points="223.4,36.2 223.4,36.2 223.4,36.2 		"/>
		<path class="st7" d="M214.2,51.3C214.2,51.3,214.2,51.3,214.2,51.3C214.2,51.3,214.2,51.3,214.2,51.3
			C214.2,51.3,214.2,51.3,214.2,51.3z"/>
		<path class="st7" d="M221.8,37.2L221.8,37.2C221.8,37.3,221.8,37.3,221.8,37.2C221.8,37.2,221.8,37.2,221.8,37.2z"/>
		<path class="st7" d="M352,120.2C352,120.2,352,120.2,352,120.2C352,120.2,352,120.2,352,120.2C352,120.2,352,120.2,352,120.2z"/>
		<path class="st7" d="M144.3,265.6C144.2,265.6,144.2,265.6,144.3,265.6C144.2,265.6,144.2,265.6,144.3,265.6L144.3,265.6z"/>
		<path class="st7" d="M152.9,434.7L152.9,434.7C152.9,434.7,152.9,434.7,152.9,434.7C152.9,434.7,152.9,434.7,152.9,434.7z"/>
		<path class="st7" d="M159.4,312.9L159.4,312.9C159.3,312.9,159.3,312.9,159.4,312.9C159.4,312.9,159.4,312.9,159.4,312.9z"/>
		<path class="st7" d="M152.9,434.7C152.9,434.7,152.9,434.7,152.9,434.7C152.9,434.7,152.9,434.7,152.9,434.7
			C152.9,434.7,152.9,434.7,152.9,434.7z"/>
		<path class="st7" d="M435.6,445.2c0,0.2,0,0.5,0.1,0.8C435.6,445.7,435.6,445.4,435.6,445.2z"/>
		<path class="st7" d="M435.5,444.5c0,0.1,0,0.3,0,0.5C435.6,444.8,435.5,444.6,435.5,444.5z"/>
		<path class="st7" d="M435.5,444.5C435.5,444.2,435.5,444.2,435.5,444.5L435.5,444.5z"/>
		<path class="st7" d="M440.7,495.2c-0.1-0.6-0.2-1.2-0.3-1.8c0,0,0.1,0,0.1,0c0.3-1.7,0-3.3-0.2-5c-0.1,0-0.3,0-0.4,0.1
			c-0.6-8-0.5-17.5-2.8-26c-0.2-0.6-0.4-1.2-0.5-1.8c0.2,0.4,0.4,0.8,0.5,1.1c-0.2-5.3-0.7-10.5-1.5-15.8
			c-2.1-22.5-5.1-45.5-7.2-68.3c0-0.1,0-0.1,0-0.2c0,0,0,0,0,0c-0.5-5.5-1-11-1.3-16.5c-2.8-41.4-1.9-87.9-11.2-127.9
			c-6.9-29.6-22.2-66.9-45.9-92.7c0,0,0,0-0.1-0.1c-3.6-4.2-15.5-17.2-23.2-25.7c-3.7-4.2-6.4-7.3-9.4-9.9
			c-10.7-9.6-21.2-19.4-32.2-28.6c-18.2-15.2-43.7-35.7-67.9-40.1c-17.9-3.3-25.7,8.5-22,26.2c2.8,13.4,10.9,25.4,15.9,38
			c4.1,10.3,4.4,18.7,3.2,28.8c0,0.3-1.2,7.3-5.1,10.9c0,0,0,0,0,0c-30.4,26.9-53.6,66.6-72,98.6c0,0,0,0,0,0c0,0,0,0,0,0
			c-15,26-23.9,52.9,3.4,75c13.2,10.7,31.7,15.9,48,19.7c11.2,2.6,22.6,4.2,34.1,5.4c2.9,0.3,32,3.1,19.4,0.7
			c4.3,0.8,8.5,1.7,12.7,2.6c-8.9-0.9-10.5,1.9-18.7,7.9c-10.6,7.9-21.5,16-31.8,24.4c-32.9,27.1-66,54.3-95.8,85
			c-3.8,4-7.7,7.9-11.4,12c-5.7,6.4-24.3,23.8-26,34.1h-0.1v5.8c0,0.8,0.7,1.5,1.5,1.5h346.8c0.8,0,1.5-0.7,1.5-1.5
			c0.2-0.1,0.3-0.2,0.4-0.3C444.5,507.8,441.2,499.8,440.7,495.2z M435.7,446.2c0,0,0-0.1,0-0.1c0,0,0,0.1,0,0.2
			C435.7,446.3,435.7,446.3,435.7,446.2z M435.7,446.7c0,0.2,0,0.3,0.1,0.5c0-0.2,0-0.5-0.1-0.8
			C435.7,446.5,435.7,446.6,435.7,446.7z M435.8,447.3c0,0.1,0,0.1,0,0.1C435.8,447.4,435.8,447.3,435.8,447.3c0,0.2,0,0.4,0.1,0.6
			c0-0.1,0-0.3,0-0.4C435.8,447.4,435.8,447.4,435.8,447.3z"/>
		<path class="st7" d="M435.8,447.4C435.8,447.4,435.8,447.4,435.8,447.4C435.8,447.5,435.8,447.5,435.8,447.4
			C435.8,447.5,435.8,447.4,435.8,447.4z"/>
	</g>
	<g>
		<linearGradient id="SVGID_2_" gradientUnits="userSpaceOnUse" x1="191.1731" y1="-133.6271" x2="319.7898" y2="69.3598">
			<stop  offset="0" style="stop-color:#FFF33B"/>
			<stop  offset="5.948725e-02" style="stop-color:#FFE029"/>
			<stop  offset="0.1303" style="stop-color:#FFD218"/>
			<stop  offset="0.2032" style="stop-color:#FEC90F"/>
			<stop  offset="0.2809" style="stop-color:#FDC70C"/>
			<stop  offset="0.4427" style="stop-color:#F3903F"/>
			<stop  offset="0.629" style="stop-color:#E93E3A"/>
			<stop  offset="1" style="stop-color:#ED683C"/>
		</linearGradient>
		<path class="st8" d="M352,120.2C352,120.2,352,120.2,352,120.2C352,120.2,352,120.2,352,120.2C352,120.2,352,120.2,352,120.2z"/>
		<linearGradient id="SVGID_3_" gradientUnits="userSpaceOnUse" x1="170.0703" y1="-120.2559" x2="279.6466" y2="52.6809">
			<stop  offset="0" style="stop-color:#FFF33B"/>
			<stop  offset="5.948725e-02" style="stop-color:#FFE029"/>
			<stop  offset="0.1303" style="stop-color:#FFD218"/>
			<stop  offset="0.2032" style="stop-color:#FEC90F"/>
			<stop  offset="0.2809" style="stop-color:#FDC70C"/>
			<stop  offset="0.4427" style="stop-color:#F3903F"/>
			<stop  offset="0.629" style="stop-color:#E93E3A"/>
			<stop  offset="1" style="stop-color:#ED683C"/>
		</linearGradient>
		<path class="st9" d="M284.2,59.9C284.2,59.9,284.2,59.9,284.2,59.9C284.2,59.9,284.2,59.9,284.2,59.9L284.2,59.9z"/>
		<linearGradient id="SVGID_4_" gradientUnits="userSpaceOnUse" x1="145.8919" y1="-104.936" x2="383.3852" y2="269.8833">
			<stop  offset="0" style="stop-color:#FFF33B"/>
			<stop  offset="5.948725e-02" style="stop-color:#FFE029"/>
			<stop  offset="0.1303" style="stop-color:#FFD218"/>
			<stop  offset="0.2032" style="stop-color:#FEC90F"/>
			<stop  offset="0.2809" style="stop-color:#FDC70C"/>
			<stop  offset="0.4427" style="stop-color:#F3903F"/>
			<stop  offset="0.629" style="stop-color:#E93E3A"/>
			<stop  offset="1" style="stop-color:#ED683C"/>
		</linearGradient>
		<path class="st10" d="M356.8,126.6c-9.7-11.3-14.3-17-19.4-21.7c-10.7-9.6-21.2-19.4-32.2-28.6c-18.2-15.2-43.7-35.7-67.9-40.1
			c-17.9-3.3-25.7,8.5-22,26.2c2.8,13.4,10.9,25.4,15.9,38c4.8,12.2,4.4,21.6,2.5,34.4c2.5-0.3,5.6-3.7,7.9-5.1
			c12.9-7.8,26.8-13.8,41.4-17.2c15.5-3.6,31.2-3.8,46.6,0.6C329.6,113.1,343.9,116.9,356.8,126.6z M335.4,104
			C335.4,104,335.4,104,335.4,104C335.4,104,335.4,104,335.4,104z"/>
	</g>
	<g>
		<linearGradient id="SVGID_5_" gradientUnits="userSpaceOnUse" x1="377.3623" y1="492.3974" x2="493.676" y2="396.5924">
			<stop  offset="0" style="stop-color:#FFF33B"/>
			<stop  offset="5.948725e-02" style="stop-color:#FFE029"/>
			<stop  offset="0.1303" style="stop-color:#FFD218"/>
			<stop  offset="0.2032" style="stop-color:#FEC90F"/>
			<stop  offset="0.2809" style="stop-color:#FDC70C"/>
			<stop  offset="0.4427" style="stop-color:#F3903F"/>
			<stop  offset="0.629" style="stop-color:#E93E3A"/>
			<stop  offset="1" style="stop-color:#ED683C"/>
		</linearGradient>
		<path class="st11" d="M435.5,444.5C435.5,444.5,435.5,444.5,435.5,444.5C435.5,444.5,435.5,444.5,435.5,444.5z"/>
		<linearGradient id="SVGID_6_" gradientUnits="userSpaceOnUse" x1="236.2668" y1="609.2773" x2="731.5125" y2="201.3546">
			<stop  offset="0" style="stop-color:#FFF33B"/>
			<stop  offset="5.948725e-02" style="stop-color:#FFE029"/>
			<stop  offset="0.1303" style="stop-color:#FFD218"/>
			<stop  offset="0.2032" style="stop-color:#FEC90F"/>
			<stop  offset="0.2809" style="stop-color:#FDC70C"/>
			<stop  offset="0.4427" style="stop-color:#F3903F"/>
			<stop  offset="0.629" style="stop-color:#E93E3A"/>
			<stop  offset="1" style="stop-color:#ED683C"/>
		</linearGradient>
		<path class="st12" d="M435.6,445.2c0-0.1,0-0.1,0-0.1C435.6,445.1,435.6,445.1,435.6,445.2z"/>
		<linearGradient id="SVGID_7_" gradientUnits="userSpaceOnUse" x1="236.5193" y1="609.5839" x2="877.9126" y2="81.2827">
			<stop  offset="0" style="stop-color:#FFF33B"/>
			<stop  offset="5.948725e-02" style="stop-color:#FFE029"/>
			<stop  offset="0.1303" style="stop-color:#FFD218"/>
			<stop  offset="0.2032" style="stop-color:#FEC90F"/>
			<stop  offset="0.2809" style="stop-color:#FDC70C"/>
			<stop  offset="0.4427" style="stop-color:#F3903F"/>
			<stop  offset="0.629" style="stop-color:#E93E3A"/>
			<stop  offset="1" style="stop-color:#ED683C"/>
		</linearGradient>
		<path class="st13" d="M435.7,446c0-0.3-0.1-0.6-0.1-0.8C435.6,445.4,435.6,445.7,435.7,446z"/>
		<linearGradient id="SVGID_8_" gradientUnits="userSpaceOnUse" x1="236.0898" y1="609.0624" x2="877.483" y2="80.7612">
			<stop  offset="0" style="stop-color:#FFF33B"/>
			<stop  offset="5.948725e-02" style="stop-color:#FFE029"/>
			<stop  offset="0.1303" style="stop-color:#FFD218"/>
			<stop  offset="0.2032" style="stop-color:#FEC90F"/>
			<stop  offset="0.2809" style="stop-color:#FDC70C"/>
			<stop  offset="0.4427" style="stop-color:#F3903F"/>
			<stop  offset="0.629" style="stop-color:#E93E3A"/>
			<stop  offset="1" style="stop-color:#ED683C"/>
		</linearGradient>
		<path class="st14" d="M435.6,445c0-0.2,0-0.4,0-0.5C435.5,444.6,435.6,444.8,435.6,445z"/>
		<linearGradient id="SVGID_9_" gradientUnits="userSpaceOnUse" x1="235.8832" y1="608.8116" x2="877.2765" y2="80.5104">
			<stop  offset="0" style="stop-color:#FFF33B"/>
			<stop  offset="5.948725e-02" style="stop-color:#FFE029"/>
			<stop  offset="0.1303" style="stop-color:#FFD218"/>
			<stop  offset="0.2032" style="stop-color:#FEC90F"/>
			<stop  offset="0.2809" style="stop-color:#FDC70C"/>
			<stop  offset="0.4427" style="stop-color:#F3903F"/>
			<stop  offset="0.629" style="stop-color:#E93E3A"/>
			<stop  offset="1" style="stop-color:#ED683C"/>
		</linearGradient>
		<path class="st15" d="M435.5,444.5C435.5,444.2,435.5,444.2,435.5,444.5L435.5,444.5z"/>
		<linearGradient id="SVGID_10_" gradientUnits="userSpaceOnUse" x1="124.1325" y1="473.1387" x2="765.5257" y2="-55.1625">
			<stop  offset="3.358717e-02" style="stop-color:#FDC70C"/>
			<stop  offset="0.3298" style="stop-color:#F3903F"/>
			<stop  offset="0.629" style="stop-color:#E93E3A"/>
			<stop  offset="1" style="stop-color:#ED683C"/>
		</linearGradient>
		<path class="st16" d="M435.7,446.1c-2.6-28-6.7-56.7-8.6-85c-2.8-41.4-1.9-87.9-11.2-127.9c-10.8-46.5-42.6-112.2-94.9-122
			c-80.5-15.2-130.1,69-163.8,127.5c-15,26-23.9,52.9,3.4,75c13.2,10.7,31.7,15.9,48,19.7c11.2,2.6,22.6,4.2,34.1,5.4
			c3,0.3,33.9,3.3,18.1,0.5c74.4,13.4,144.1,51.7,176.5,122.6C437,456.6,436.5,451.3,435.7,446.1
			C435.7,446.1,436.2,451.4,435.7,446.1z M379.7,157.2C379.8,157.6,379.1,157.6,379.7,157.2L379.7,157.2z M417.4,247.2
			C417.4,247.2,417.4,247.2,417.4,247.2C417.4,247.2,417.4,247.2,417.4,247.2z M435.7,446.2c0,0.3,0.1,0.5,0.1,0.8
			C435.7,446.7,435.7,446.5,435.7,446.2z M435.8,447.3c0,0.1,0,0.1,0,0.2C435.8,447.4,435.8,447.4,435.8,447.3z"/>
		<linearGradient id="SVGID_11_" gradientUnits="userSpaceOnUse" x1="72.3953" y1="410.3263" x2="414.8734" y2="128.2348">
			<stop  offset="0" style="stop-color:#FFF33B"/>
			<stop  offset="5.948725e-02" style="stop-color:#FFE029"/>
			<stop  offset="0.1303" style="stop-color:#FFD218"/>
			<stop  offset="0.2032" style="stop-color:#FEC90F"/>
			<stop  offset="0.2809" style="stop-color:#FDC70C"/>
			<stop  offset="0.4427" style="stop-color:#F3903F"/>
			<stop  offset="0.629" style="stop-color:#E93E3A"/>
			<stop  offset="1" style="stop-color:#ED683C"/>
		</linearGradient>
		<path class="st17" d="M379.7,157.2C379.6,157.3,379.7,157.3,379.7,157.2L379.7,157.2z"/>
	</g>
	<linearGradient id="SVGID_12_" gradientUnits="userSpaceOnUse" x1="12.1522" y1="668.5473" x2="591.0339" y2="259.5086">
		<stop  offset="0" style="stop-color:#FFF33B"/>
		<stop  offset="5.948725e-02" style="stop-color:#FFE029"/>
		<stop  offset="0.1303" style="stop-color:#FFD218"/>
		<stop  offset="0.2032" style="stop-color:#FEC90F"/>
		<stop  offset="0.2809" style="stop-color:#FDC70C"/>
		<stop  offset="0.4427" style="stop-color:#F3903F"/>
		<stop  offset="0.629" style="stop-color:#E93E3A"/>
		<stop  offset="1" style="stop-color:#ED683C"/>
	</linearGradient>
	<path class="st18" d="M440.7,495.2c-0.1-0.6-0.2-1.2-0.3-1.8c0,0,0.1,0,0.1,0c0.3-1.7,0-3.3-0.2-5c-0.1,0-0.3,0-0.4,0.1
		c-0.6-8-0.5-17.5-2.8-26c-3.9-14.4-12.9-28-22.2-39.2c-18.3-22.1-42.3-39.8-67.1-54c-21.3-12.1-44.8-22.3-69-26.6
		c-12.6-2.2-13.5,0.5-22.7,7.3c-10.6,7.9-21.5,16-31.8,24.4c-32.9,27.1-66,54.3-95.8,85c-3.8,4-7.7,7.9-11.4,12
		c-5.7,6.4-24.3,23.8-26,34.1h-0.1v5.8c0,0.8,0.7,1.5,1.5,1.5h346.8c0.8,0,1.5-0.7,1.5-1.5l0,0c0.2-0.1,0.3-0.2,0.4-0.3
		C444.5,507.8,441.2,499.8,440.7,495.2z"/>
</g>
<rect x="-1413.6" y="160" class="st19" width="228.5" height="228.5"/>
<rect x="-1142.9" y="160" class="st20" width="228.5" height="228.5"/>
<rect x="-872.2" y="160" class="st7" width="228.5" height="228.5"/>
<rect x="-601.5" y="160" class="st21" width="228.5" height="228.5"/>
<rect x="-1684.3" y="160" class="st22" width="228.5" height="228.5"/>
<rect x="-1955.1" y="160" class="st0" width="228.5" height="228.5"/>
</svg>
