<svg id="Layer_1" data-name="Layer 1" xmlns="http://www.w3.org/2000/svg" viewBox="0 0 201.58 197.05"><title>opt_cat</title><rect x="20.07" y="17.81" width="161.44" height="161.44" style="fill:#c3996b"/><path d="M41.94,69.68c-2.1-1-9.63-46.63,0-47.63S73,47.71,74.13,53,59,77.64,41.94,69.68Z" style="fill:#fcb268;stroke:#502220;stroke-miterlimit:10;stroke-width:2px"/><path d="M49.26,61.31c-1-.46-4.5-21.79,0-22.26s14.52,12,15,14.48S57.22,65,49.26,61.31Z" style="fill:#f6921e;stroke:#502220;stroke-miterlimit:10;stroke-width:2px"/><path d="M153.17,69.68c2.1-1,9.63-46.63,0-47.63S122.09,47.71,121,53,136.13,77.64,153.17,69.68Z" style="fill:#fcb268;stroke:#502220;stroke-miterlimit:10;stroke-width:2px"/><path d="M145.85,61.31c1-.46,4.5-21.79,0-22.26s-14.52,12-15,14.48S137.89,65,145.85,61.31Z" style="fill:#f6921e;stroke:#502220;stroke-miterlimit:10;stroke-width:2px"/><path d="M109.06,148.74c-27.58-1.2-40.87,6.49-41,30.5h68.37C137.61,165.43,129.31,149.62,109.06,148.74Z" style="fill:#f4a045"/><path d="M120.93,179.24a18.55,18.55,0,0,0-36.28,0Z" style="fill:#ffd985"/><path d="M136.47,179.24c1.15-13.81-7.16-29.62-27.41-30.5-27.58-1.2-40.87,6.49-41,30.5" style="fill:none;stroke:#502220;stroke-miterlimit:10;stroke-width:2px"/><path d="M28.49,117.07c-.89-52.16,26.66-68.77,85-66.24,71.74,3.12,71.24,96.6,24.17,105.41C102.52,162.82,29.38,169.17,28.49,117.07Z" style="fill:#f4a045"/><path d="M28.49,117.07c-.89-52.16,26.66-68.77,85-66.24,71.74,3.12,71.24,96.6,24.17,105.41C102.52,162.82,29.38,169.17,28.49,117.07Z" style="fill:none;stroke:#502220;stroke-miterlimit:10;stroke-width:2px"/><path d="M73.17,113.95h0c-7.43.19-13.64-4.95-13.86-11.48l-.22-6.26c-.23-6.54,5.62-12,13-12.19h0C79.57,83.82,85.78,89,86,95.5l.22,6.27c.23,6.54-5.62,12-13,12.19" style="fill:#f2f2f2"/><path d="M73.17,113.95h0c-7.43.19-13.64-4.95-13.86-11.48l-.22-6.26c-.23-6.54,5.62-12,13-12.19h0C79.57,83.82,85.78,89,86,95.5l.22,6.27c.23,6.54-5.62,12-13,12.19" style="fill:none;stroke:#502220;stroke-miterlimit:10;stroke-width:1.5px"/><path d="M86,95.5a11.36,11.36,0,0,0-4.87-8.75,11.05,11.05,0,0,0-3.36-.44c-6.56.17-11.67,6.08-11.43,13.19s5.76,12.74,12.32,12.57a11,11,0,0,0,1.74-.2,11.44,11.44,0,0,0,5.83-10.1Z" style="fill:#502220"/><path d="M128,111.84h0c7.61-.06,13.84-5.54,13.9-12.24l.06-6.42c.06-6.7-6.06-12.09-13.67-12h0c-7.61.06-13.84,5.54-13.9,12.24l-.06,6.43c-.06,6.7,6.06,12.09,13.67,12" style="fill:#f2f2f2"/><path d="M128,111.84h0c7.61-.06,13.84-5.54,13.9-12.24l.06-6.42c.06-6.7-6.06-12.09-13.67-12h0c-7.61.06-13.84,5.54-13.9,12.24l-.06,6.43c-.06,6.7,6.06,12.09,13.67,12" style="fill:none;stroke:#502220;stroke-miterlimit:10;stroke-width:1.5px"/><path d="M114.36,93.38a11.76,11.76,0,0,1,4.77-9.13,11.36,11.36,0,0,1,3.43-.57c6.72,0,12.11,5.82,12,13.12S129,110,122.31,110.09a11.2,11.2,0,0,1-1.79-.15A11.6,11.6,0,0,1,114.3,99.8Z" style="fill:#502220"/><path d="M83.91,127.38s8.76,13,18.88,3c0,0,12.79,9.67,17.45-3" style="fill:none;stroke:#502220;stroke-linejoin:round;stroke-width:1.5px"/><ellipse cx="141.35" cy="124.71" rx="6.74" ry="2.67" style="fill:#502220"/><ellipse cx="68.09" cy="124.71" rx="6.74" ry="2.67" style="fill:#502220"/><line x1="155.75" y1="119.05" x2="183.41" y2="110.09" style="fill:none;stroke:#502220;stroke-linejoin:round;stroke-width:1.5px"/><line x1="155.75" y1="122.66" x2="177.59" y2="120.78" style="fill:none;stroke:#502220;stroke-linejoin:round;stroke-width:1.5px"/><line x1="155.75" y1="127.38" x2="183.41" y2="129.38" style="fill:none;stroke:#502220;stroke-linejoin:round;stroke-width:1.5px"/><line x1="43.74" y1="119.05" x2="16.08" y2="110.09" style="fill:none;stroke:#502220;stroke-linejoin:round;stroke-width:1.5px"/><line x1="43.74" y1="122.66" x2="21.89" y2="120.78" style="fill:none;stroke:#502220;stroke-linejoin:round;stroke-width:1.5px"/><line x1="43.74" y1="127.38" x2="16.08" y2="129.38" style="fill:none;stroke:#502220;stroke-linejoin:round;stroke-width:1.5px"/></svg>