<svg id="Layer_1" data-name="Layer 1" xmlns="http://www.w3.org/2000/svg" viewBox="0 0 201.58 197.05"><title>opt_lion</title><rect x="20.44" y="24.97" width="161.44" height="161.44" style="fill:#cc908c"/><path d="M110.59,150.19c-32.74-1.42-48.53,7.71-48.65,36.22h81.19C144.49,170,134.63,151.24,110.59,150.19Z" style="fill:#ffc94a"/><path d="M123.23,186.41a20.55,20.55,0,0,0-40.19,0Z" style="fill:#ffd985"/><path d="M143.13,186.41c1.36-16.4-8.5-35.17-32.54-36.22-32.74-1.42-48.53,7.71-48.65,36.22" style="fill:none;stroke:#502220;stroke-miterlimit:10;stroke-width:2px"/><path d="M40.52,32.7C89.91.52,167,22.71,183.14,46.58s20.53,108.21-23.31,124.86S42.19,183.64,26.65,169.21-8.86,64.89,40.52,32.7Z" style="fill:#fa6c18"/><path d="M53.65,81.57c-1.24,0-16.8-15-31.7-29.69C11,69.56,8.14,92.38,9.51,113.32c17.65-2.29,36.9-5.13,41.77-7.16C51.27,106.16,56,81.57,53.65,81.57Z" style="fill:#ff913c"/><path d="M129,153c-2.38-.79-16.66,4.76-16.66,4.76l8.11,22.7a182.48,182.48,0,0,0,32.12-6.5C141.62,163.76,130.21,153.36,129,153Z" style="fill:#ff913c"/><path d="M143.28,88.71S166,71.2,190.53,64.81c-1.94-7.56-4.47-13.9-7.4-18.24a33.65,33.65,0,0,0-5.66-6.26L137.73,79.19Z" style="fill:#ff913c"/><path d="M26.65,169.21c4.42,4.11,13.56,7.4,25.39,9.63,9.36-15.15,19.79-32.4,20.65-35.41L54.45,129.16a298.66,298.66,0,0,1-36.94,23.73C20.35,160.58,23.59,166.37,26.65,169.21Z" style="fill:#ff913c"/><path d="M152,126s15.91,13.18,32.8,21.11c4.4-8.91,7.15-19.29,8.56-30l-39-7Z" style="fill:#ff913c"/><path d="M91.73,67.29l27-4,6.78-44.5a141.94,141.94,0,0,0-46.18-.56C82.42,37.53,87,60.35,91.73,67.29Z" style="fill:#ff913c"/><path d="M79.29,18.26S83.57,48.7,87,53.71" style="fill:none;stroke:#502220;stroke-miterlimit:10;stroke-width:1.5px"/><path d="M95.92,35.58s1.16,14.27,2.7,17.36" style="fill:none;stroke:#502220;stroke-miterlimit:10;stroke-width:1.5px"/><path d="M134.49,31.34s0,20.44-5,23.53" style="fill:none;stroke:#502220;stroke-miterlimit:10;stroke-width:1.5px"/><path d="M185.8,69.91S175.38,83,165,86.5" style="fill:none;stroke:#502220;stroke-miterlimit:10;stroke-width:1.5px"/><path d="M18.38,63s10.8,15.43,18.9,16.2" style="fill:none;stroke:#502220;stroke-miterlimit:10;stroke-width:1.5px"/><path d="M20.31,76.47s11.19,8.1,15.43,7.33" style="fill:none;stroke:#502220;stroke-miterlimit:10;stroke-width:1.5px"/><path d="M54.64,175.22s6.17-11.57,9.26-15.43" style="fill:none;stroke:#502220;stroke-miterlimit:10;stroke-width:1.5px"/><path d="M49.63,165.19s3.86-6.94,5.4-8.49" style="fill:none;stroke:#502220;stroke-miterlimit:10;stroke-width:1.5px"/><line x1="137.93" y1="158.93" x2="152.58" y2="173.91" style="fill:none;stroke:#502220;stroke-miterlimit:10;stroke-width:1.5px"/><path d="M128.71,160.95a9.93,9.93,0,0,0,4.24,6.56" style="fill:none;stroke:#502220;stroke-miterlimit:10;stroke-width:1.5px"/><path d="M170.75,112.73s15.43,5,19.67,3.47" style="fill:none;stroke:#502220;stroke-miterlimit:10;stroke-width:1.5px"/><path d="M170.75,118.13a13,13,0,0,0,10.42,4.63" style="fill:none;stroke:#502220;stroke-miterlimit:10;stroke-width:1.5px"/><path d="M14.91,111.57s12.73,1.16,14.66-1.54" style="fill:none;stroke:#502220;stroke-miterlimit:10;stroke-width:1.5px"/><path d="M20.31,117.36s8.49,1.16,8.87-2.7" style="fill:none;stroke:#502220;stroke-miterlimit:10;stroke-width:1.5px"/><path d="M86.34,24.85s-1-10.57-.33-14.21" style="fill:none;stroke:#502220;stroke-miterlimit:10;stroke-width:1.5px"/><path d="M177.85,56.89s7.93-5,9.91-7.93" style="fill:none;stroke:#502220;stroke-miterlimit:10;stroke-width:1.5px"/><path d="M34.8,161s-7.27,6.28-7.93,11.23" style="fill:none;stroke:#502220;stroke-miterlimit:10;stroke-width:1.5px"/><path d="M161,158s7.93,5.62,8.92,10.24" style="fill:none;stroke:#502220;stroke-miterlimit:10;stroke-width:1.5px"/><path d="M32.48,47.31A10.93,10.93,0,0,1,28.85,40" style="fill:none;stroke:#502220;stroke-miterlimit:10;stroke-width:1.5px"/><path d="M21.25,133.54S9.69,135.86,7,134.86" style="fill:none;stroke:#502220;stroke-miterlimit:10;stroke-width:1.5px"/><path d="M40.52,32.7C89.91.52,167,22.71,183.14,46.58s20.53,108.21-23.31,124.86S42.19,183.64,26.65,169.21-8.86,64.89,40.52,32.7Z" style="fill:none;stroke:#502220;stroke-miterlimit:10;stroke-width:2px"/><path d="M140.45,67.54S138,49.68,153.16,49s27.48,22,0,27.48Z" style="fill:#ffc94a"/><path d="M140.45,67.54S138,49.68,153.16,49s27.48,22,0,27.48" style="fill:none;stroke:#502220;stroke-miterlimit:10;stroke-width:2px"/><path d="M144.08,69.07s-2-13.44,9.21-12.69,9.21,15.18-2.74,18.17Z" style="fill:#ff913c"/><path d="M144.08,69.07s-2-13.44,9.21-12.69,9.21,15.18-2.74,18.17Z" style="fill:none;stroke:#502220;stroke-miterlimit:10;stroke-width:1.5px"/><path d="M62.28,65.55S64.69,47.69,49.57,47s-27.48,22,0,27.48Z" style="fill:#ffc94a"/><path d="M62.28,65.55S64.69,47.69,49.57,47s-27.48,22,0,27.48" style="fill:none;stroke:#502220;stroke-miterlimit:10;stroke-width:2px"/><path d="M56.89,67.52s2-13.44-9.21-12.69S38.47,70,50.42,73Z" style="fill:#ff913c"/><path d="M56.89,67.52s2-13.44-9.21-12.69S38.47,70,50.42,73Z" style="fill:none;stroke:#502220;stroke-miterlimit:10;stroke-width:1.5px"/><path d="M28.76,119.76c-.89-52.16,26.66-68.77,85-66.24,71.74,3.12,71.24,96.6,24.17,105.41C102.79,165.5,29.65,171.85,28.76,119.76Z" style="fill:#ff913c"/><path d="M28.76,119.76c-.89-52.16,26.66-68.77,85-66.24,71.74,3.12,71.24,96.6,24.17,105.41C102.79,165.5,29.65,171.85,28.76,119.76Z" style="fill:#ffc94a"/><path d="M122.56,70.05c2.62-1.12,12.15.12,13.45,2.93s-.56,8-2.28,8.57-11-1.48-13.61-3.19S119.94,71.17,122.56,70.05Z" style="fill:#ff913c"/><path d="M122.64,78.91s5.17-7.21,8.71-8.3" style="fill:none;stroke:#502220;stroke-miterlimit:10;stroke-width:1.3px"/><path d="M128.78,81.26A69.49,69.49,0,0,1,136.39,77" style="fill:none;stroke:#502220;stroke-miterlimit:10;stroke-width:1.3px"/><path d="M122.56,70.05c2.62-1.12,12.15.12,13.45,2.93s-.56,8-2.28,8.57-11-1.48-13.61-3.19S119.94,71.17,122.56,70.05Z" style="fill:none;stroke:#502220;stroke-miterlimit:10;stroke-width:1.5px"/><path d="M73.9,72c-2.9-.64-12.89,2.45-14,5.56s1.42,8.08,3.31,8.28S74.77,82.2,77.35,80,76.8,72.62,73.9,72Z" style="fill:#ff913c"/><path d="M67.82,73.06s7.78,4,9.54,6.91" style="fill:none;stroke:#502220;stroke-miterlimit:10;stroke-width:1.3px"/><path d="M59.52,81.08S65,82.58,66,84.89" style="fill:none;stroke:#502220;stroke-miterlimit:10;stroke-width:1.3px"/><path d="M73.9,72c-2.9-.64-12.89,2.45-14,5.56s1.42,8.08,3.31,8.28S74.77,82.2,77.35,80,76.8,72.62,73.9,72Z" style="fill:none;stroke:#502220;stroke-miterlimit:10;stroke-width:1.5px"/><circle cx="63.05" cy="136.98" r="12.13" style="fill:#ff7878"/><circle cx="140.83" cy="134.89" r="12.13" style="fill:#ff7878"/><path d="M28.76,119.76c-.89-52.16,26.66-68.77,85-66.24,71.74,3.12,71.24,96.6,24.17,105.41C102.79,165.5,29.65,171.85,28.76,119.76Z" style="fill:none;stroke:#502220;stroke-miterlimit:10;stroke-width:2px"/><path d="M73.44,123.72h0c-7.43.19-13.64-4.95-13.86-11.48L59.36,106c-.23-6.54,5.62-12,13-12.19h0c7.43-.19,13.64,4.95,13.86,11.48l.21,6.27c.23,6.54-5.62,12-13,12.19" style="fill:#f2f2f2"/><path d="M73.44,123.72h0c-7.43.19-13.64-4.95-13.86-11.48L59.36,106c-.23-6.54,5.62-12,13-12.19h0c7.43-.19,13.64,4.95,13.86,11.48l.21,6.27c.23,6.54-5.62,12-13,12.19" style="fill:none;stroke:#502220;stroke-miterlimit:10;stroke-width:1.5px"/><path d="M86.27,105.27a11.36,11.36,0,0,0-4.87-8.75A11.05,11.05,0,0,0,78,96.08c-6.56.17-11.67,6.08-11.43,13.19S72.37,122,78.92,121.84a11,11,0,0,0,1.74-.2,11.44,11.44,0,0,0,5.83-10.1Z" style="fill:#502220"/><path d="M128.07,121.82h0c7.6.39,14.14-4.71,14.6-11.4l.44-6.41c.46-6.69-5.33-12.43-12.94-12.82h0c-7.6-.39-14.14,4.71-14.6,11.4l-.44,6.41c-.46,6.69,5.33,12.43,12.93,12.82" style="fill:#f2f2f2"/><path d="M128.07,121.82h0c7.6.39,14.14-4.71,14.6-11.4l.44-6.41c.46-6.69-5.33-12.43-12.94-12.82h0c-7.6-.39-14.14,4.71-14.6,11.4l-.44,6.41c-.46,6.69,5.33,12.43,12.93,12.82" style="fill:none;stroke:#502220;stroke-miterlimit:10;stroke-width:1.5px"/><path d="M115.57,102.6a11.76,11.76,0,0,1,5.3-8.83,11.36,11.36,0,0,1,3.46-.36c6.71.35,11.74,6.53,11.24,13.8s-6.34,12.9-13.05,12.55a11.19,11.19,0,0,1-1.78-.25A11.6,11.6,0,0,1,115.13,109Z" style="fill:#502220"/><ellipse cx="101.21" cy="128.6" rx="20.34" ry="19.58" transform="translate(-5.2 4.27) rotate(-2.36)" style="fill:#ffd985"/><ellipse cx="101.21" cy="128.6" rx="20.34" ry="19.58" transform="translate(-5.2 4.27) rotate(-2.36)" style="fill:none;stroke:#502220;stroke-miterlimit:10;stroke-width:1.5px"/><path d="M111.28,110.75c-1.63-5-19.78-4.75-20.09,1.09s5.09,9.28,10.84,9.36C107.1,121.26,112.91,115.71,111.28,110.75Z" style="fill:#502220"/><path d="M103.71,109.9a17.11,17.11,0,0,0-6,.51" style="fill:none;stroke:#fff;stroke-miterlimit:10"/><path d="M107.17,110.52a15,15,0,0,0-1.93-.43" style="fill:none;stroke:#fff;stroke-miterlimit:10"/><path d="M102,119.33a123.45,123.45,0,0,0,0,13.29" style="fill:none;stroke:#502220;stroke-miterlimit:10;stroke-width:1.5px"/><path d="M90.66,123.34c4.85-3.42,7.31,4.88,10.76,3.71s4.75-6.77,10.05-4.74,4,18.08-10,17.84S85.81,126.76,90.66,123.34Z" style="fill:#502220"/><path d="M96.14,139.3a17.76,17.76,0,0,0,5.31.85c5.85.1,9.47-2.63,11.34-6C100.92,130.44,97.18,134.88,96.14,139.3Z" style="fill:#ff7878"/><path d="M90.66,123.34c4.85-3.42,7.31,4.88,10.76,3.71s4.75-6.77,10.05-4.74,4,18.08-10,17.84S85.81,126.76,90.66,123.34Z" style="fill:none;stroke:#502220;stroke-miterlimit:10;stroke-width:2px"/><path d="M111.7,122.42l-.23-.11c-5.31-2-6.61,3.56-10.05,4.74s-5.82-6.83-10.51-3.86a12.25,12.25,0,0,0,2.37,5c.17,1.88.58,4.6,1.6,4.85s1.48-1.2,1.82-2.47a11.12,11.12,0,0,0,6.16.12,13.33,13.33,0,0,0,3.41-1.25c.62,1.57,1.55,3.21,2.57,2.55,1.25-.8,1.22-3.9,1.08-5.77A12.36,12.36,0,0,0,111.7,122.42Z" style="fill:#f2f2f2"/></svg>