<svg id="Layer_1" data-name="Layer 1" xmlns="http://www.w3.org/2000/svg" viewBox="0 0 201.58 197.05"><title>opt_dog</title><rect x="20.07" y="17.81" width="161.44" height="161.44" style="fill:#b08080"/><path d="M114,143c-32.74-1.42-48.53,7.71-48.65,36.22h81.19C147.89,162.85,138,144.07,114,143Z" style="fill:#9e4b13"/><path d="M128.08,179.24a22,22,0,0,0-43.08,0Z" style="fill:#ffa368"/><path d="M146.53,179.24c1.36-16.4-8.5-35.17-32.54-36.22-32.74-1.42-48.53,7.71-48.65,36.22" style="fill:none;stroke:#502220;stroke-miterlimit:10;stroke-width:2px"/><path d="M139.79,54.07s21.8-36.43,26.32-32.91,18,37.42-17.55,45.38" style="fill:#9e4b13"/><path d="M146.14,67.18s13-8.29,13-18.73S166,25.75,166,25.75,181.81,55.29,146.14,67.18Z" style="fill:#f2f2f2"/><path d="M161.88,34.92a41.72,41.72,0,0,0-2.77,13.53c0,10.45-13,18.73-13,18.73,9.07-3,14.8-7.19,18.31-11.71C165.4,47.57,163.52,39.82,161.88,34.92Z" style="fill:#7f3d58"/><path d="M146.14,67.18s13-8.29,13-18.73S166,25.75,166,25.75,181.81,55.29,146.14,67.18Z" style="fill:none;stroke:#502220;stroke-miterlimit:10;stroke-width:1.5px"/><path d="M139.79,54.07s21.8-36.43,26.32-32.91,18,37.42-17.55,45.38" style="fill:none;stroke:#502220;stroke-miterlimit:10;stroke-width:2px"/><path d="M65.14,54.07S43.34,17.64,38.82,21.16s-18,37.42,17.55,45.38" style="fill:#9e4b13"/><path d="M58.8,67.18s-13-8.29-13-18.73S39,25.75,39,25.75,23.13,55.29,58.8,67.18Z" style="fill:#f2f2f2"/><path d="M43.06,34.92a41.71,41.71,0,0,1,2.77,13.53c0,10.45,13,18.73,13,18.73C49.73,64.16,44,60,40.48,55.47,39.53,47.57,41.42,39.82,43.06,34.92Z" style="fill:#7f3d58"/><path d="M58.8,67.18s-13-8.29-13-18.73S39,25.75,39,25.75,23.13,55.29,58.8,67.18Z" style="fill:none;stroke:#502220;stroke-miterlimit:10;stroke-width:1.5px"/><path d="M65.14,54.07S43.34,17.64,38.82,21.16s-18,37.42,17.55,45.38" style="fill:none;stroke:#502220;stroke-miterlimit:10;stroke-width:2px"/><path d="M32.17,112.59c-.89-52.16,26.66-68.77,85-66.24,71.74,3.12,71.24,96.6,24.17,105.41C106.19,158.34,33,164.69,32.17,112.59Z" style="fill:#9e4b13"/><path d="M149.09,55.86c-.69,5.84,5,19.94-9.68,21.77-12.34,1.54-23.34,12.07-22.19,30,.78,12.26,26.14,2.49,26.14,2.49A12.57,12.57,0,0,1,150,120.7c.2,6.8-2,14.15,2,13.21,6.27-1.47,20.73-19.69,21.13-41.65C170.29,78,162.49,64.52,149.09,55.86Z" style="fill:#f2f2f2"/><path d="M34.09,89.56c-.82,23.15,14.59,42.83,21.11,44.35,4,.93,1.78-6.42,2-13.21a12.57,12.57,0,0,1,6.61-10.57s25.36,9.77,26.14-2.49c1.15-17.93-9.85-28.46-22.19-30C52.74,75.76,59,61,58,55.44,45.4,62.34,37.49,73.38,34.09,89.56Z" style="fill:#f2f2f2"/><path d="M90.18,123.37S88.67,88.6,104.29,89.11s14.11,38.8,14.11,38.8Z" style="fill:#ce845b"/><path d="M32.17,112.59c-.89-52.16,26.66-68.77,85-66.24,71.74,3.12,71.24,96.6,24.17,105.41C106.19,158.34,33,164.69,32.17,112.59Z" style="fill:none;stroke:#502220;stroke-miterlimit:10;stroke-width:2px"/><path d="M76.84,116.56h0c-7.43.19-13.64-4.95-13.86-11.48l-.22-6.26c-.23-6.54,5.62-12,13-12.19h0c7.43-.19,13.64,4.95,13.86,11.48l.21,6.27c.23,6.54-5.62,12-13,12.19" style="fill:#f2f2f2"/><path d="M76.84,116.56h0c-7.43.19-13.64-4.95-13.86-11.48l-.22-6.26c-.23-6.54,5.62-12,13-12.19h0c7.43-.19,13.64,4.95,13.86,11.48l.21,6.27c.23,6.54-5.62,12-13,12.19" style="fill:none;stroke:#502220;stroke-miterlimit:10;stroke-width:1.5px"/><path d="M89.67,98.11a11.36,11.36,0,0,0-4.87-8.75,11.05,11.05,0,0,0-3.36-.44C74.88,89.09,69.76,95,70,102.11s5.76,12.74,12.32,12.57a11,11,0,0,0,1.74-.2,11.44,11.44,0,0,0,5.83-10.1Z" style="fill:#502220"/><path d="M131.36,114.68h0c7.6-.37,13.6-6.1,13.38-12.8l-.2-6.42c-.21-6.7-6.55-11.83-14.15-11.46h0c-7.6.37-13.6,6.1-13.38,12.8l.2,6.42c.21,6.7,6.55,11.83,14.15,11.46" style="fill:#f2f2f2"/><path d="M131.36,114.68h0c7.6-.37,13.6-6.1,13.38-12.8l-.2-6.42c-.21-6.7-6.55-11.83-14.15-11.46h0c-7.6.37-13.6,6.1-13.38,12.8l.2,6.42c.21,6.7,6.55,11.83,14.15,11.46" style="fill:none;stroke:#502220;stroke-miterlimit:10;stroke-width:1.5px"/><path d="M117,96.81a11.76,11.76,0,0,1,4.39-9.32,11.36,11.36,0,0,1,3.41-.71c6.71-.33,12.34,5.32,12.57,12.61s-5,13.47-11.73,13.79a11.21,11.21,0,0,1-1.79-.07,11.6,11.6,0,0,1-6.64-9.88Z" style="fill:#502220"/><ellipse cx="103.99" cy="118.34" rx="20.25" ry="19.78" transform="translate(-4.78 4.37) rotate(-2.36)" style="fill:#f2f2f2"/><ellipse cx="103.99" cy="118.34" rx="20.25" ry="19.78" transform="translate(-4.78 4.37) rotate(-2.36)" style="fill:none;stroke:#502220;stroke-miterlimit:10;stroke-width:1.5px"/><path d="M104.78,108.85s0,6.35.08,9.83" style="fill:none;stroke:#502220;stroke-miterlimit:10;stroke-width:1.5px"/><path d="M95.38,103.44s6.92,6.07,9.45,5.73,8.24-5.73,8.24-5.73" style="fill:none;stroke:#502220;stroke-miterlimit:10;stroke-width:1.75px"/><path d="M94.63,115.8c8.24,4.67,14.68,3.45,20.36-1" style="fill:none;stroke:#502220;stroke-miterlimit:10;stroke-width:1.5px"/></svg>