<svg id="Layer_1" data-name="Layer 1" xmlns="http://www.w3.org/2000/svg" viewBox="0 0 201.58 197.05"><title>opt_chicken</title><rect x="20.07" y="17.81" width="161.44" height="161.44" style="fill:#ffc94a"/><path d="M109.06,148.74c-27.58-1.2-40.87,6.49-41,30.5h68.37C137.61,165.43,129.31,149.62,109.06,148.74Z" style="fill:#ffc94a"/><path d="M120.93,179.24a18.55,18.55,0,0,0-36.28,0Z" style="fill:#ffd985"/><path d="M136.47,179.24c1.15-13.81-7.16-29.62-27.41-30.5-27.58-1.2-40.87,6.49-41,30.5" style="fill:none;stroke:#502220;stroke-miterlimit:10;stroke-width:2px"/><path d="M28.49,117.07c-.89-52.16,26.66-68.77,85-66.24,71.74,3.12,71.24,96.6,24.17,105.41C102.52,162.82,29.38,169.17,28.49,117.07Z" style="fill:#ffd985"/><path d="M81,66.89s3.21,13.17,8,14.78,4.18-5.78,4.18-5.78,1,7.71,7.39,7.07S104.47,72,104.47,72s7.39,12.53,10.93,6.75-3.86-16.07-3.86-16.07" style="fill:none;stroke:#502220;stroke-linejoin:round;stroke-width:1.5px"/><path d="M28.49,117.07c-.89-52.16,26.66-68.77,85-66.24,71.74,3.12,71.24,96.6,24.17,105.41C102.52,162.82,29.38,169.17,28.49,117.07Z" style="fill:none;stroke:#502220;stroke-miterlimit:10;stroke-width:2px"/><path d="M73.17,113.95h0c-7.43.19-13.64-4.95-13.86-11.48l-.22-6.26c-.23-6.54,5.62-12,13-12.19h0C79.57,83.82,85.78,89,86,95.5l.22,6.27c.23,6.54-5.62,12-13,12.19" style="fill:#f2f2f2"/><path d="M73.17,113.95h0c-7.43.19-13.64-4.95-13.86-11.48l-.22-6.26c-.23-6.54,5.62-12,13-12.19h0C79.57,83.82,85.78,89,86,95.5l.22,6.27c.23,6.54-5.62,12-13,12.19" style="fill:none;stroke:#502220;stroke-miterlimit:10;stroke-width:1.5px"/><path d="M86,95.5a11.36,11.36,0,0,0-4.87-8.75,11.05,11.05,0,0,0-3.36-.44c-6.56.17-11.67,6.08-11.43,13.19s5.76,12.74,12.32,12.57a11,11,0,0,0,1.74-.2,11.44,11.44,0,0,0,5.83-10.1Z" style="fill:#502220"/><path d="M128,111.84h0c7.61-.06,13.84-5.54,13.9-12.24l.06-6.42c.06-6.7-6.06-12.09-13.67-12h0c-7.61.06-13.84,5.54-13.9,12.24l-.06,6.43c-.06,6.7,6.06,12.09,13.67,12" style="fill:#f2f2f2"/><path d="M128,111.84h0c7.61-.06,13.84-5.54,13.9-12.24l.06-6.42c.06-6.7-6.06-12.09-13.67-12h0c-7.61.06-13.84,5.54-13.9,12.24l-.06,6.43c-.06,6.7,6.06,12.09,13.67,12" style="fill:none;stroke:#502220;stroke-miterlimit:10;stroke-width:1.5px"/><path d="M114.36,93.38a11.76,11.76,0,0,1,4.77-9.13,11.36,11.36,0,0,1,3.43-.57c6.72,0,12.11,5.82,12,13.12S129,110,122.31,110.09a11.2,11.2,0,0,1-1.79-.15A11.6,11.6,0,0,1,114.3,99.8Z" style="fill:#502220"/><ellipse cx="101.1" cy="108.46" rx="15.69" ry="11" style="fill:#ffd985"/><path d="M85.42,108.39s0,0,0,.07c0,6.07,7,11,15.69,11s15.69-4.92,15.69-11a7.79,7.79,0,0,0-.06-.79,37.13,37.13,0,0,0-14.92-2.94A36,36,0,0,0,85.42,108.39Z" style="fill:#ffc94a"/><path d="M85.42,108.46s16.5-9.12,31.37,0" style="fill:none;stroke:#502220;stroke-miterlimit:10;stroke-width:1.5px"/><ellipse cx="101.1" cy="108.46" rx="15.69" ry="11" style="fill:none;stroke:#502220;stroke-miterlimit:10;stroke-width:2px"/></svg>